<svg xmlns="http://www.w3.org/2000/svg" width="16.203" height="20.2" viewBox="0 0 16.203 20.2">
  <path id="Path_473" data-name="Path 473" d="M69.011,16.493l-.9-11.255A1.414,1.414,0,0,0,66.7,3.945h-1.78V3.866a3.9,3.9,0,0,0-7.8,0v.079H55.34a1.414,1.414,0,0,0-1.408,1.292l-.9,11.258a3.249,3.249,0,0,0,.866,2.462A3.309,3.309,0,0,0,56.306,20h9.429a3.309,3.309,0,0,0,2.411-1.044A3.25,3.25,0,0,0,69.011,16.493ZM58.3,3.866a2.719,2.719,0,0,1,5.437,0v.079H58.3ZM67.278,18.16a2.091,2.091,0,0,1-1.543.668H56.306a2.091,2.091,0,0,1-1.543-.668,2.051,2.051,0,0,1-.554-1.575l.9-11.258a.231.231,0,0,1,.23-.211h1.78V6.56a.591.591,0,0,0,1.182,0V5.117h5.437V6.56a.591.591,0,0,0,1.182,0V5.117H66.7a.231.231,0,0,1,.23.213l.9,11.254A2.052,2.052,0,0,1,67.278,18.16Z" transform="translate(-52.918 0.1)" fill="#fff" stroke="#fff" stroke-width="0.2"/>
</svg>
