<svg xmlns="http://www.w3.org/2000/svg" width="17.012" height="20" viewBox="0 0 17.012 20">
  <g id="Group_1694" data-name="Group 1694" transform="translate(0)">
    <path id="Path_511" data-name="Path 511" d="M141.332,10.777h.133a3.822,3.822,0,0,0,2.92-1.263c1.595-1.8,1.329-4.879,1.3-5.173A4.225,4.225,0,0,0,143.676.584,4.6,4.6,0,0,0,141.448,0h-.07a4.612,4.612,0,0,0-2.228.567,4.228,4.228,0,0,0-2.034,3.773c-.029.294-.294,3.375,1.3,5.173A3.806,3.806,0,0,0,141.332,10.777Zm-3.11-6.333c0-.012,0-.025,0-.033.137-2.97,2.245-3.288,3.148-3.288h.05c1.118.025,3.019.48,3.148,3.288a.081.081,0,0,0,0,.033c0,.029.294,2.845-1.023,4.328a2.715,2.715,0,0,1-2.133.886h-.041a2.706,2.706,0,0,1-2.129-.886C137.936,7.3,138.217,4.469,138.221,4.444Z" transform="translate(-132.898)" fill="#fff"/>
    <path id="Path_512" data-name="Path 512" d="M53.084,264.395v-.012c0-.033,0-.066,0-.1-.025-.82-.079-2.738-1.876-3.351l-.041-.012a11.951,11.951,0,0,1-3.438-1.566.559.559,0,1,0-.642.915,12.9,12.9,0,0,0,3.781,1.727c.965.344,1.073,1.375,1.1,2.319a.831.831,0,0,0,0,.1,7.518,7.518,0,0,1-.087,1.28,15.242,15.242,0,0,1-7.3,1.7,15.33,15.33,0,0,1-7.306-1.7,7.116,7.116,0,0,1-.087-1.28c0-.033,0-.066,0-.1.029-.944.137-1.976,1.1-2.319a13.019,13.019,0,0,0,3.781-1.727.559.559,0,0,0-.642-.915A11.819,11.819,0,0,1,38,260.911l-.041.012c-1.8.617-1.851,2.535-1.876,3.351a.833.833,0,0,1,0,.1v.012a6.351,6.351,0,0,0,.211,1.876.531.531,0,0,0,.215.261,15.665,15.665,0,0,0,8.084,1.98,15.713,15.713,0,0,0,8.084-1.98.554.554,0,0,0,.215-.261A6.664,6.664,0,0,0,53.084,264.395Z" transform="translate(-36.073 -248.507)" fill="#fff"/>
  </g>
</svg>
