<svg xmlns="http://www.w3.org/2000/svg" viewBox="0 0 243.08 126.17"><defs><style>.cls-1{fill:#ffa900;}.cls-2{fill:#fcc600;}.cls-3{fill:#fff;}.cls-4{fill:#161718;}</style></defs><title>Asset 65</title><g id="Layer_2" data-name="Layer 2"><g id="Layer_1-2" data-name="Layer 1"><path class="cls-1" d="M149.45,5.09a17.37,17.37,0,1,0,0,24.57,17.37,17.37,0,0,0,0-24.57m-6.84,19.73A2,2,0,0,1,140.84,22l-3.68-3.68L133.48,22a2,2,0,1,1-1.77-1.09,2,2,0,0,1,.84.19l3.69-3.69-3.66-3.66a2,2,0,0,1-2.27-3.15,2,2,0,0,1,3.18,2.23l3.67,3.67,3.66-3.66a2,2,0,1,1,.9.92l-3.65,3.65,3.69,3.69a2,2,0,1,1,.84,3.75"/><path class="cls-2" d="M106.09,13.52a2,2,0,0,0,0,.35l-6.33,3.28h0a2,2,0,0,0-.68-.44v-6a2,2,0,0,0,.68-.44l0-.05,6.28,3a1.9,1.9,0,0,0,0,.29"/><path class="cls-2" d="M102,.09A13.43,13.43,0,1,0,115.4,13.52,13.43,13.43,0,0,0,102,.09m7.48,14.83a2,2,0,0,1-2.73.05l-6.38,3.31a1.8,1.8,0,0,1,0,.26,2,2,0,1,1-2.51-1.9V10.76a2,2,0,1,1,2.49-1.69l6.33,3a2,2,0,0,1,2.78,2.8"/><path class="cls-2" d="M140.84,39a13.43,13.43,0,1,0,13.43,13.43A13.43,13.43,0,0,0,140.84,39m-2,16.87a2,2,0,1,1-2.79,0,2,2,0,0,1,.68-.44V49.3a2,2,0,1,1,1.43,0v6.09a2,2,0,0,1,.68.44m6.61,0a2,2,0,1,1-2.79,0,2,2,0,0,1,.68-.44V49.3a2,2,0,1,1,1.43,0v6.09a2,2,0,0,1,.68.44"/><path class="cls-3" d="M133.11,21.45l0,0-.07-.07,0,0"/><path class="cls-3" d="M133.14,21.49l-.07-.07,0,0,0,0"/><path class="cls-1" d="M106.09,31.07a17.37,17.37,0,1,0,17.37,17.37,17.37,17.37,0,0,0-17.37-17.37m9.11,18.79a2,2,0,0,1-3.26-.77h-5.2V54.3a2,2,0,1,1-1.29,0V49.09h-5.17a2,2,0,1,1-.47-2,2,2,0,0,1,.46.73h5.19V42.62a2,2,0,1,1,1.29,0V47.8H112a2,2,0,1,1,3.25,2.06"/><path class="cls-4" d="M63.59,122.28a11.76,11.76,0,0,0,9-4l2.64,2.36A14.67,14.67,0,0,1,63.48,126c-7.81,0-14.19-6-14.19-14.85,0-8.25,5.77-14.85,13.64-14.85,8.41,0,13.25,6.71,13.25,15.07,0,.38,0,.82-.05,1.48H53.58c.6,6,5,9.46,10,9.46m8.3-12.87c-.49-5.17-3.46-9.57-9.07-9.57-4.89,0-8.63,4.07-9.24,9.57Z"/><path class="cls-4" d="M145.38,122.48a11.76,11.76,0,0,0,9-4l2.64,2.36a14.67,14.67,0,0,1-11.71,5.33c-7.81,0-14.19-6-14.19-14.85,0-8.25,5.77-14.85,13.64-14.85,8.41,0,13.25,6.71,13.25,15.07,0,.38,0,.82-.05,1.48H135.38c.61,6,5,9.46,10,9.46m8.3-12.87c-.49-5.17-3.46-9.57-9.07-9.57-4.89,0-8.63,4.07-9.24,9.57Z"/><path class="cls-4" d="M180,97v4.56h-.33c-6.21,0-11.17,3.27-11.17,11.85l-.1,12.51h-4.23L164,109.69s.68-12,16-12.65"/><path class="cls-4" d="M186,111.11a14.81,14.81,0,0,1,26-9.79l-2.69,2.86c-2.25-2.36-4.89-4.18-8.74-4.18-5.77,0-10.17,4.89-10.17,11.11s4.51,11.05,10.45,11.05c3.63,0,6.32-1.87,8.58-4.29l2.8,2.58c-2.86,3.19-6.27,5.5-11.6,5.5A14.62,14.62,0,0,1,186,111.11"/><path class="cls-4" d="M218.22,85.82h4.23v16.66a10.77,10.77,0,0,1,9.73-5.55c6.87,0,10.89,4.62,10.89,11.38V126h-4.23V109.35c0-5.28-2.86-8.58-7.86-8.58s-8.52,3.57-8.52,8.91V126h-4.23Z"/><path class="cls-4" d="M125.16,108.07c-.07-6.9-4.05-11.2-10.51-11.2a13.45,13.45,0,0,0-1.39.07c-4.12.43-7,.77-9.4,5.57-.17-2.41-4.52-5.64-8.28-5.64-.5,0-1.54,0-2,0-4.08.39-7.35,1.87-9.13,3.93-2.16,2.51-2.21,7.27-2.21,7.27h0v17.72h4.22V109.25c0-5.48,2.74-8.55,7.34-8.55h.55c4.49,0,7.28,3.12,7.28,8.44v16.65h4.16V109.14c0-5.32,2.8-8.44,7.29-8.44h.55c4.6,0,7.34,3.07,7.34,8.55v16.54h4.22V108.26c0-.07,0-.13,0-.19"/><path class="cls-4" d="M42.94,106.49c-.07-6.9-4.05-11.2-10.51-11.2a13.52,13.52,0,0,0-1.39.07c-4.12.43-7,.77-9.4,5.57-.17-2.41-4.52-5.64-8.28-5.64-.5,0-1.54,0-2,0-4.08.39-7.35,1.87-9.13,3.93C.06,101.73,0,106.49,0,106.49H0v17.72H4.22V107.67c0-5.48,2.74-8.55,7.34-8.55h.55c4.49,0,7.28,3.12,7.28,8.44v16.65h4.16V107.56c0-5.32,2.8-8.44,7.29-8.44h.55c4.6,0,7.34,3.07,7.34,8.55v16.54h4.22V106.69c0-.07,0-.13,0-.19"/></g></g></svg>