<svg xmlns="http://www.w3.org/2000/svg" width="16.203" height="20.2"><path data-name="Path 473" d="M16.093 16.593l-.9-11.255a1.414 1.414 0 00-1.411-1.293h-1.78v-.079a3.9 3.9 0 00-7.8 0v.079h-1.78a1.414 1.414 0 00-1.408 1.292l-.9 11.258a3.249 3.249 0 00.866 2.462A3.309 3.309 0 003.388 20.1h9.429a3.309 3.309 0 002.411-1.044 3.25 3.25 0 00.865-2.463zM5.382 3.966a2.719 2.719 0 015.437 0v.079H5.382zM14.36 18.26a2.091 2.091 0 01-1.543.668H3.388a2.091 2.091 0 01-1.543-.668 2.051 2.051 0 01-.554-1.575l.9-11.258a.231.231 0 01.23-.211h1.78V6.66a.591.591 0 001.182 0V5.217h5.437V6.66a.591.591 0 001.182 0V5.217h1.78a.231.231 0 01.23.213l.9 11.254a2.052 2.052 0 01-.552 1.576z" fill="#fff" stroke="#fff" stroke-width=".2"/></svg>