<svg xmlns="http://www.w3.org/2000/svg" width="17.012" height="20"><g data-name="Group 1694" fill="#fff"><path data-name="Path 511" d="M8.434 10.777h.133a3.822 3.822 0 002.92-1.263c1.595-1.8 1.329-4.879 1.3-5.173A4.225 4.225 0 0010.778.584 4.6 4.6 0 008.55 0h-.07a4.612 4.612 0 00-2.228.567A4.228 4.228 0 004.218 4.34c-.029.294-.294 3.375 1.3 5.173a3.806 3.806 0 002.916 1.264zm-3.11-6.333v-.033c.137-2.97 2.245-3.288 3.148-3.288h.05c1.118.025 3.019.48 3.148 3.288a.081.081 0 000 .033c0 .029.294 2.845-1.023 4.328a2.715 2.715 0 01-2.133.886h-.041a2.706 2.706 0 01-2.129-.886C5.038 7.3 5.319 4.469 5.323 4.444z"/><path data-name="Path 512" d="M17.011 15.888v-.112c-.025-.82-.079-2.738-1.876-3.351l-.041-.012a11.951 11.951 0 01-3.438-1.566.559.559 0 10-.642.915 12.9 12.9 0 003.781 1.727c.965.344 1.073 1.375 1.1 2.319a.831.831 0 000 .1 7.518 7.518 0 01-.087 1.28 15.242 15.242 0 01-7.3 1.7 15.33 15.33 0 01-7.306-1.7 7.116 7.116 0 01-.087-1.28v-.1c.029-.944.137-1.976 1.1-2.319a13.019 13.019 0 003.781-1.727.559.559 0 00-.642-.915 11.819 11.819 0 01-3.427 1.557l-.041.012c-1.8.617-1.851 2.535-1.876 3.351a.833.833 0 010 .1v.012a6.351 6.351 0 00.211 1.876.531.531 0 00.215.261 15.665 15.665 0 008.084 1.98 15.713 15.713 0 008.084-1.98.554.554 0 00.215-.261 6.664 6.664 0 00.192-1.867z"/></g></svg>