<svg xmlns="http://www.w3.org/2000/svg" viewBox="0 0 243.08 126.17"><defs><style>.cls-1{fill:#ffa900}.cls-2{fill:#fcc600}</style></defs><g id="Layer_2" data-name="Layer 2"><g id="Layer_1-2" data-name="Layer 1"><path class="cls-1" d="M149.45 5.09a17.37 17.37 0 100 24.57 17.37 17.37 0 000-24.57m-6.84 19.73a2 2 0 01-1.77-2.82l-3.68-3.68-3.68 3.68a2 2 0 11-1.77-1.09 2 2 0 01.84.19l3.69-3.69-3.66-3.66a2 2 0 01-2.27-3.15 2 2 0 013.18 2.23l3.67 3.67 3.66-3.66a2 2 0 11.9.92l-3.65 3.65 3.69 3.69a2 2 0 11.84 3.75"/><path class="cls-2" d="M106.09 13.52a2 2 0 000 .35l-6.33 3.28a2 2 0 00-.68-.44v-6a2 2 0 00.68-.44v-.05l6.28 3a1.9 1.9 0 000 .29"/><path class="cls-2" d="M102 .09a13.43 13.43 0 1013.4 13.43A13.43 13.43 0 00102 .09m7.48 14.83a2 2 0 01-2.73.05l-6.38 3.31a1.8 1.8 0 010 .26 2 2 0 11-2.51-1.9v-5.88a2 2 0 112.49-1.69l6.33 3a2 2 0 012.78 2.8M140.84 39a13.43 13.43 0 1013.43 13.43A13.43 13.43 0 00140.84 39m-2 16.87a2 2 0 11-2.79 0 2 2 0 01.68-.44V49.3a2 2 0 111.43 0v6.09a2 2 0 01.68.44m6.61 0a2 2 0 11-2.79 0 2 2 0 01.68-.44V49.3a2 2 0 111.43 0v6.09a2 2 0 01.68.44"/><path d="M133.11 21.45l-.07-.07m.1.11l-.07-.07" fill="#fff"/><path class="cls-1" d="M106.09 31.07a17.37 17.37 0 1017.37 17.37 17.37 17.37 0 00-17.37-17.37m9.11 18.79a2 2 0 01-3.26-.77h-5.2v5.21a2 2 0 11-1.29 0v-5.21h-5.17a2 2 0 11-.47-2 2 2 0 01.46.73h5.19v-5.2a2 2 0 111.29 0v5.18H112a2 2 0 113.25 2.06"/><path d="M63.59 122.28a11.76 11.76 0 009-4l2.64 2.36A14.67 14.67 0 0163.48 126c-7.81 0-14.19-6-14.19-14.85 0-8.25 5.77-14.85 13.64-14.85 8.41 0 13.25 6.71 13.25 15.07 0 .38 0 .82-.05 1.48H53.58c.6 6 5 9.46 10 9.46m8.3-12.87c-.49-5.17-3.46-9.57-9.07-9.57-4.89 0-8.63 4.07-9.24 9.57zm73.5 13.04a11.76 11.76 0 009-4l2.64 2.36a14.67 14.67 0 01-11.71 5.33c-7.81 0-14.19-6-14.19-14.85 0-8.25 5.77-14.85 13.64-14.85 8.41 0 13.25 6.71 13.25 15.07 0 .38 0 .82-.05 1.48h-22.58c.61 6 5 9.46 10 9.46m8.3-12.87c-.49-5.17-3.46-9.57-9.07-9.57-4.89 0-8.63 4.07-9.24 9.57zM180 97v4.56h-.33c-6.21 0-11.17 3.27-11.17 11.85l-.1 12.51h-4.23l-.17-16.23s.68-12 16-12.65m6 14.07a14.81 14.81 0 0126-9.79l-2.69 2.86c-2.25-2.36-4.89-4.18-8.74-4.18-5.77 0-10.17 4.89-10.17 11.11s4.51 11.05 10.45 11.05c3.63 0 6.32-1.87 8.58-4.29l2.8 2.58c-2.86 3.19-6.27 5.5-11.6 5.5A14.62 14.62 0 01186 111.11m32.22-25.29h4.23v16.66a10.77 10.77 0 019.73-5.55c6.87 0 10.89 4.62 10.89 11.38V126h-4.23v-16.65c0-5.28-2.86-8.58-7.86-8.58s-8.52 3.57-8.52 8.91V126h-4.23zm-93.06 22.25c-.07-6.9-4.05-11.2-10.51-11.2a13.45 13.45 0 00-1.39.07c-4.12.43-7 .77-9.4 5.57-.17-2.41-4.52-5.64-8.28-5.64h-2c-4.08.39-7.35 1.87-9.13 3.93-2.16 2.51-2.21 7.27-2.21 7.27v17.72h4.22v-16.54c0-5.48 2.74-8.55 7.34-8.55h.55c4.49 0 7.28 3.12 7.28 8.44v16.65h4.16v-16.65c0-5.32 2.8-8.44 7.29-8.44h.55c4.6 0 7.34 3.07 7.34 8.55v16.54h4.22v-17.72m-82.25-1.58c-.07-6.9-4.05-11.2-10.51-11.2a13.52 13.52 0 00-1.39.07c-4.12.43-7 .77-9.4 5.57-.17-2.41-4.52-5.64-8.28-5.64h-2c-4.08.39-7.35 1.87-9.13 3.93C.06 101.73 0 106.49 0 106.49v17.72h4.22v-16.54c0-5.48 2.74-8.55 7.34-8.55h.55c4.49 0 7.28 3.12 7.28 8.44v16.65h4.16v-16.65c0-5.32 2.8-8.44 7.29-8.44h.55c4.6 0 7.34 3.07 7.34 8.55v16.54h4.22V106.5" fill="#161718"/></g></g></svg>