<svg xmlns="http://www.w3.org/2000/svg" viewBox="0 0 1175.72 200"><defs><style>.cls-1{fill:#ffa900}.cls-2{fill:#fcc600}.cls-3{fill:#fff}</style></defs><g id="Layer_2" data-name="Layer 2"><g id="Layer_1-2" data-name="Layer 1"><path class="cls-1" d="M184.58 15.46a52.72 52.72 0 100 74.66 52.55 52.55 0 000-74.66m-20.74 59.95a6 6 0 01-5.34-8.67l-11.15-11.18-11.17 11.2a6 6 0 01-1.13 6.9A6 6 0 11133.4 64l11.19-11.23-11.08-11.09a5.94 5.94 0 01-6.89-1.12 6 6 0 119.63-1.69L147.35 50l11.1-11.13a6 6 0 115.39 3.43 5.9 5.9 0 01-2.65-.63l-11.07 11.1L161.3 64a6 6 0 112.54 11.4"/><path class="cls-2" d="M53.19 41.09a6.21 6.21 0 00.09 1.06l-19.18 10a5.92 5.92 0 00-2.1-1.4V32.52a5.92 5.92 0 002.06-1.34l.14-.15 19 9.2a5.79 5.79 0 00-.06.87"/><path class="cls-2" d="M40.71.27a40.82 40.82 0 1040.7 40.82A40.76 40.76 0 0040.71.27m22.67 45.05a6 6 0 01-8.28.15L35.77 55.53a5.5 5.5 0 01.05.79 6 6 0 11-7.59-5.76V32.7a6 6 0 117.56-5.14L55 36.83a6 6 0 018.41 8.5m95.07 73.04a40.82 40.82 0 1040.71 40.82 40.76 40.76 0 00-40.71-40.82m-6 51.28a6 6 0 11-8.44 0 6.06 6.06 0 011.96-1.35v-18.5a6 6 0 114.34 0v18.5a6 6 0 012.05 1.34m20 0a6 6 0 11-8.44 0 6.06 6.06 0 012.05-1.34v-18.5a6 6 0 114.34 0v18.5a6 6 0 012.05 1.34"/><path class="cls-3" d="M135.06 65.19l.11.11-.22-.22.11.1"/><path class="cls-3" d="M135.16 65.3l-.22-.22.11.1.11.11"/><path class="cls-1" d="M53.19 94.42a52.79 52.79 0 1052.65 52.79 52.72 52.72 0 00-52.65-52.79m27.61 57.1a6 6 0 01-9.89-2.35H55.14V165a6 6 0 11-3.91 0v-15.83H35.56a6 6 0 11-1.44-6.17 6 6 0 011.4 2.2h15.72v-15.69a6 6 0 113.91 0v15.7H71a6 6 0 119.83 6.26"/><path d="M515.56 160.38c14.36 0 24.47-5.86 33-14.76l9.71 8.7C547.72 166 535 173.93 515.16 173.93c-28.72 0-52.18-22-52.18-54.6 0-30.34 21.23-54.6 50.15-54.6 30.94 0 48.74 24.67 48.74 55.41 0 1.42 0 3-.2 5.46h-82.91c2.22 22 18.4 34.79 36.81 34.79m30.54-47.32c-1.82-19-12.74-35.19-33.37-35.19-18 0-31.75 15-34 35.19zm270.3 48.07c14.36 0 24.47-5.86 33-14.76l9.71 8.69c-10.52 11.73-23.26 19.62-43.08 19.62-28.72 0-52.18-22-52.18-54.6 0-30.34 21.23-54.6 50.15-54.6 30.94 0 48.74 24.67 48.74 55.41 0 1.42 0 3-.2 5.46H779.6c2.23 22 18.41 34.79 36.81 34.79m30.54-47.32c-1.82-19-12.74-35.19-33.37-35.19-18 0-31.75 15-34 35.19zm96.66-46.27v16.78h-1.21c-22.85 0-41.1 12-41.1 43.59l-.36 46h-15.58l-.42-59.84s2.52-44 58.66-46.54m22.23 51.78c0-29.53 23.05-54.6 53.59-54.6 19.82 0 32.16 8.29 41.86 18.61l-9.91 10.52c-8.29-8.7-18-15.37-32.15-15.37-21.24 0-37.41 18-37.41 40.85 0 22.65 16.58 40.65 38.42 40.65 13.35 0 23.26-6.88 31.55-15.77l10.31 9.5c-10.52 11.73-23.05 20.22-42.67 20.22-30.54 0-53.59-24.87-53.59-54.6m118.49-93.04h15.57v61.28c6.88-11.32 17.8-20.42 35.8-20.42 25.28 0 40 17 40 41.86v64.92h-15.57v-61.08c0-19.42-10.52-31.55-28.92-31.55-18 0-31.35 13.14-31.35 32.76v59.86h-15.57zM742 108.13c-.26-25.38-14.91-41.19-38.67-41.19a49.47 49.47 0 00-5.11.26c-15.11 1.57-25.74 2.8-34.52 20.49-.62-8.88-16.61-20.75-30.44-20.75-1.83 0-5.68-.17-7.43 0-15 1.44-27 6.88-33.59 14.47-7.94 9.21-8.14 26.72-8.14 26.72v65.17h15.52v-60.83c0-20.15 10.07-31.43 27-31.43h2c16.52 0 26.79 11.48 26.79 31v61.24h15.31v-61.21c0-19.55 10.28-31 26.8-31h2c16.93 0 27 11.28 27 31.43v60.84H742v-65.21m-302.38-5.8C439.36 77 424.71 61.14 401 61.14a49.74 49.74 0 00-5.11.26c-15.15 1.57-25.78 2.85-34.56 20.49-.62-8.88-16.61-20.75-30.44-20.75-1.83 0-5.68-.17-7.43 0-15 1.44-27 6.88-33.58 14.47-7.94 9.21-8.14 26.72-8.14 26.72v65.17h15.46v-60.83c0-20.15 10.07-31.43 27-31.43h2c16.52 0 26.79 11.48 26.79 31v61.24h15.31v-61.21c0-19.55 10.28-31 26.8-31h2c16.93 0 27 11.28 27 31.43v60.84h15.51v-65.25" fill="#161718"/></g></g></svg>